#!OML:ASF F:\VICON\USERDATA\INSTALL\rory3\rory3.ASF
:FULLY-SPECIFIED
:DEGREES
50
root 4.3598 17.6255 2.08631 18.4648 3.06103 -1.43731
lowerback -9.79372 1.40223 12.4713
upperback -13.4074 1.49773 1.19194
thorax -8.88175 -0.338644 -5.61313
lowerneck -1.45193 18.6344 10.5205
upperneck 5.70776 24.2156 4.61489
head 2.75815 12.3596 0.70947
rclavicle 1.94809e-014 -3.81667e-014
rhumerus 1.40023 -25.203 30.5925
rradius 117.078
rwrist -71.215
rhand -2.5919 -43.5598
rfingers 7.12502
rthumb 23.1056 -72.1944
lclavicle 1.94809e-014 -3.81667e-014
lhumerus 34.9078 32.8729 -9.41243
lradius 29.3357
lwrist 36.2294
lhand -23.0329 -17.9472
lfingers 7.12502
lthumb 3.41129 12.0052
rfemur -3.6277 10.4509 -2.51736
rtibia 15.3938
rfoot 21.3212 -17.211
rtoes -17.1428
lfemur -15.1118 -1.49235 -27.435
ltibia 12.4605
lfoot -13.5371 8.89861
ltoes 11.1616
51
root 4.3722 17.6246 2.09046 18.4305 3.19784 -1.48815
lowerback -9.78265 1.38536 12.7064
upperback -13.4537 1.47054 1.15405
thorax -8.9572 -0.38281 -5.78515
lowerneck -1.1232 18.5013 10.8249
upperneck 5.49442 24.1015 4.18124
head 2.72562 12.2881 0.505173
rclavicle 2.98177e-015 1.27222e-014
rhumerus 1.39257 -25.177 30.5763
rradius 117.081
rwrist -71.3577
rhand -2.40881 -43.6834
rfingers 7.12502
rthumb 23.2812 -72.2959
lclavicle 2.98177e-015 1.27222e-014
lhumerus 35.2042 33.0053 -9.13768
lradius 29.1365
lwrist 35.3007
lhand -22.343 -18.4929
lfingers 7.12502
lthumb 4.07753 11.4478
rfemur -3.39405 10.4195 -2.40323
rtibia 15.1474
rfoot 21.3745 -17.3803
rtoes -16.9287
lfemur -15.1523 -1.32429 -27.4288
ltibia 12.6822
lfoot -13.6802 8.61718
ltoes 11.2357
52
root 4.38552 17.624 2.09421 18.3795 3.37906 -1.61248
lowerback -9.86111 1.37659 13.0386
upperback -13.4186 1.42986 1.13224
thorax -8.89284 -0.42986 -5.99275
lowerneck -1.23765 18.5302 10.7146
upperneck 5.62088 24.1161 4.34547
head 2.75211 12.3031 0.582745
rclavicle -1.61016e-014 -1.03368e-014
rhumerus 1.3669 -25.1828 30.5045
rradius 117.047
rwrist -71.3492
rhand -2.4152 -43.6973
rfingers 7.12502
rthumb 23.2751 -72.3105
lclavicle -1.61016e-014 -1.03368e-014
lhumerus 35.2917 33.0868 -9.10765
lradius 29.0327
lwrist 34.6137
lhand -22.5361 -18.4367
lfingers 7.12502
lthumb 3.89105 11.5075
rfemur -3.14496 10.2645 -2.1881
rtibia 14.9763
rfoot 21.4576 -17.4255
rtoes -16.6307
lfemur -15.1842 -1.1608 -27.3362
ltibia 12.8576
lfoot -13.753 8.35954
ltoes 10.9396
53
root 4.39419 17.6237 2.09822 18.3096 3.45425 -1.7051
lowerback -9.53893 1.34061 13.2611
upperback -13.6328 1.44452 1.10077
thorax -9.33887 -0.482875 -6.15303
lowerneck -1.39956 18.6091 10.4751
upperneck 6.25252 24.1478 5.05127
head 2.87026 12.3601 0.863436
rclavicle 1.5704e-014 -2.54444e-014
rhumerus 1.55352 -24.7729 30.2824
rradius 117.009
rwrist -71.1995
rhand -2.4729 -43.7041
rfingers 7.12502
rthumb 23.2198 -72.3243
lclavicle 1.5704e-014 -2.54444e-014
lhumerus 35.1416 32.5031 -9.47561
lradius 29.1333
lwrist 34.6984
lhand -22.9794 -18.2021
lfingers 7.12502
lthumb 3.46295 11.7495
rfemur -3.0219 10.2745 -2.02023
rtibia 14.9859
rfoot 21.417 -17.5364
rtoes -16.9782
lfemur -15.0977 -1.22574 -27.2387
ltibia 12.8752
lfoot -13.801 8.36496
ltoes 10.7166
54
root 4.39407 17.624 2.11044 18.3176 3.33047 -1.70157
lowerback -9.63209 1.37668 13.1941
upperback -13.642 1.4779 1.07215
thorax -9.28585 -0.458949 -6.14536
lowerneck -1.62711 18.6358 10.341
upperneck 6.49536 24.1338 5.32308
head 2.93925 12.3694 0.99297
rclavicle -6.36111e-015 2.14687e-014
rhumerus 1.53437 -24.6752 30.2325
rradius 116.936
rwrist -71.2047
rhand -2.57468 -43.8278
rfingers 7.12502
rthumb 23.1221 -72.4603
lclavicle -6.36111e-015 2.14687e-014
lhumerus 35.0227 32.1632 -9.81177
lradius 29.2307
lwrist 34.9801
lhand -23.5952 -18.1598
lfingers 7.12502
lthumb 2.8683 11.8007
rfemur -3.1261 10.6625 -2.00254
rtibia 15.1122
rfoot 21.2742 -17.892
rtoes -17.3857
lfemur -15.0226 -1.35732 -27.2243
ltibia 12.7836
lfoot -13.7756 8.56929
ltoes 10.6265
